REM DIRINDEX 1\2,1\3,1\4,1\5
REM DIRNAME cjc004,folder01,folder02,folder03,folder04
TITLE ""
FILE "1Q_t_0720-0729.mp3" MP3
  TRACK 01 AUDIO
    TITLE "3:cjc004_3063"
    INDEX 01 00:00:00
  TRACK 02 AUDIO
    TITLE "0:"
    INDEX 01 00:01:03
  TRACK 03 AUDIO
    TITLE "4:cjc004_3064"
    INDEX 01 00:01:30
  TRACK 04 AUDIO
    TITLE "0:"
    INDEX 01 00:02:45
  TRACK 05 AUDIO
    TITLE "5:cjc004_3065"
    INDEX 01 00:02:69
  TRACK 06 AUDIO
    TITLE "0:"
    INDEX 01 00:07:00
  TRACK 07 AUDIO
    TITLE "3:cjc004_3066"
    INDEX 01 00:07:52
  TRACK 08 AUDIO
    TITLE "0:"
    INDEX 01 00:08:68
  TRACK 09 AUDIO
    TITLE "4:cjc004_3067"
    INDEX 01 00:09:24
  TRACK 10 AUDIO
    TITLE "0:"
    INDEX 01 00:10:53
  TRACK 11 AUDIO
    TITLE "5:cjc004_3068"
    INDEX 01 00:11:03
  TRACK 12 AUDIO
    TITLE "0:"
    INDEX 01 00:15:05
  TRACK 13 AUDIO
    TITLE "3:cjc004_3069"
    INDEX 01 00:15:62
  TRACK 14 AUDIO
    TITLE "0:"
    INDEX 01 00:17:06
  TRACK 15 AUDIO
    TITLE "4:cjc004_3070"
    INDEX 01 00:17:37
  TRACK 16 AUDIO
    TITLE "0:"
    INDEX 01 00:18:72
  TRACK 17 AUDIO
    TITLE "5:cjc004_3071"
    INDEX 01 00:19:22
  TRACK 18 AUDIO
    TITLE "0:"
    INDEX 01 00:24:33
  TRACK 19 AUDIO
    TITLE "3:cjc004_3072"
    INDEX 01 00:25:05
  TRACK 20 AUDIO
    TITLE "0:"
    INDEX 01 00:26:11
  TRACK 21 AUDIO
    TITLE "4:cjc004_3073"
    INDEX 01 00:26:38
  TRACK 22 AUDIO
    TITLE "0:"
    INDEX 01 00:27:57
  TRACK 23 AUDIO
    TITLE "5:cjc004_3074"
    INDEX 01 00:28:04
  TRACK 24 AUDIO
    TITLE "0:"
    INDEX 01 00:32:50
  TRACK 25 AUDIO
    TITLE "3:cjc004_3075"
    INDEX 01 00:33:26
  TRACK 26 AUDIO
    TITLE "0:"
    INDEX 01 00:34:32
  TRACK 27 AUDIO
    TITLE "4:cjc004_3076"
    INDEX 01 00:34:61
  TRACK 28 AUDIO
    TITLE "0:"
    INDEX 01 00:36:15
  TRACK 29 AUDIO
    TITLE "5:cjc004_3077"
    INDEX 01 00:36:40
  TRACK 30 AUDIO
    TITLE "0:"
    INDEX 01 00:41:14
  TRACK 31 AUDIO
    TITLE "3:cjc004_3078"
    INDEX 01 00:41:69
  TRACK 32 AUDIO
    TITLE "0:"
    INDEX 01 00:43:21
  TRACK 33 AUDIO
    TITLE "4:cjc004_3079"
    INDEX 01 00:43:48
  TRACK 34 AUDIO
    TITLE "0:"
    INDEX 01 00:45:02
  TRACK 35 AUDIO
    TITLE "5:cjc004_3080"
    INDEX 01 00:45:28
  TRACK 36 AUDIO
    TITLE "0:"
    INDEX 01 00:49:33
  TRACK 37 AUDIO
    TITLE "3:cjc004_3081"
    INDEX 01 00:50:07
  TRACK 38 AUDIO
    TITLE "0:"
    INDEX 01 00:51:09
  TRACK 39 AUDIO
    TITLE "4:cjc004_3082"
    INDEX 01 00:51:38
  TRACK 40 AUDIO
    TITLE "0:"
    INDEX 01 00:52:65
  TRACK 41 AUDIO
    TITLE "5:cjc004_3083"
    INDEX 01 00:53:17
  TRACK 42 AUDIO
    TITLE "0:"
    INDEX 01 00:57:50
  TRACK 43 AUDIO
    TITLE "3:cjc004_3084"
    INDEX 01 00:58:28
  TRACK 44 AUDIO
    TITLE "0:"
    INDEX 01 00:59:51
  TRACK 45 AUDIO
    TITLE "4:cjc004_3085"
    INDEX 01 01:00:06
  TRACK 46 AUDIO
    TITLE "0:"
    INDEX 01 01:01:29
  TRACK 47 AUDIO
    TITLE "5:cjc004_3086"
    INDEX 01 01:01:60
  TRACK 48 AUDIO
    TITLE "0:"
    INDEX 01 01:06:59
  TRACK 49 AUDIO
    TITLE "3:cjc004_3087"
    INDEX 01 01:07:31
  TRACK 50 AUDIO
    TITLE "0:"
    INDEX 01 01:08:42
  TRACK 51 AUDIO
    TITLE "4:cjc004_3088"
    INDEX 01 01:08:70
  TRACK 52 AUDIO
    TITLE "0:"
    INDEX 01 01:10:20
  TRACK 53 AUDIO
    TITLE "5:cjc004_3089"
    INDEX 01 01:10:45
  TRACK 54 AUDIO
    TITLE "0:"
    INDEX 01 01:16:05
  TRACK 55 AUDIO
    TITLE "3:cjc004_3090"
    INDEX 01 01:16:54
  TRACK 56 AUDIO
    TITLE "0:"
    INDEX 01 01:18:06
  TRACK 57 AUDIO
    TITLE "4:cjc004_3091"
    INDEX 01 01:18:33
  TRACK 58 AUDIO
    TITLE "0:"
    INDEX 01 01:19:56
  TRACK 59 AUDIO
    TITLE "5:cjc004_3092"
    INDEX 01 01:20:00
  TRACK 60 AUDIO
    TITLE "0:"
    INDEX 01 01:24:59
